inDegrees=yes
name=ik_l_comf_01-000_00_orientations
DataType=double
version=3
OpenSimVersion=4.5
endheader
time	pelvis_tilt	pelvis_list	pelvis_rotation	pelvis_tx	pelvis_ty	pelvis_tz	hip_flexion_r	hip_adduction_r	hip_rotation_r	knee_angle_r	knee_angle_r_beta	ankle_angle_r	subtalar_angle_r	mtp_angle_r	hip_flexion_l	hip_adduction_l	hip_rotation_l	knee_angle_l	knee_angle_l_beta	ankle_angle_l	subtalar_angle_l	mtp_angle_l	lumbar_extension	lumbar_bending	lumbar_rotation	arm_flex_r	arm_add_r	arm_rot_r	elbow_flex_r	pro_sup_r	wrist_flex_r	wrist_dev_r	arm_flex_l	arm_add_l	arm_rot_l	elbow_flex_l	pro_sup_l	wrist_flex_l	wrist_dev_l
84.00000000000198	-65.51306685384334	-9.245067133238026	-204.3837873519041	0	0.9399999999999999	0	39.95435851379403	-18.87549254753929	-14.04887048794015	33.93322411555045	0.5922464866334961	-18.72699636705129	0	0	-29.9882190717307	29.99701606021416	-39.99397816428455	119.9979661109278	2.094359604332265	-39.99710971166882	0	0	0	0	0	0	-15.00409134877039	0	75.00029552251267	45.00000025951214	0	0	0	-15.00409134877039	0	75.00029552251267	45.00000025951214	0	0
84.02500000000198	-65.26848105719036	-8.763681539602516	-204.6351306030623	0	0.9399999999999999	0	40.56313341096428	-18.32886285035341	-14.03755737243512	34.63032435976289	0.6044131811114597	-18.4825665481696	0	0	-29.98820353682776	29.99702843796234	-39.99395717838687	119.9979471403891	2.094359273233903	-39.99709045046405	0	0	0	0	0	0	-15.00408739071948	0	75.00029529615689	45.00000025949034	0	0	0	-15.00408739071948	0	75.00029529615689	45.00000025949034	0	0
84.05000000000199	-65.0601733325411	-8.230247377881899	-204.7904677443803	0	0.9399999999999999	0	40.69533023763766	-17.58708355590479	-14.25076988948491	34.6962213131322	0.6055632999147873	-18.31586261224301	0	0	-29.98818010448232	29.99704324793884	-39.99394782659707	119.9979284275543	2.094358946633325	-39.9970754059285	0	0	0	0	0	0	-15.00408600312666	0	75.00029521715277	45.00000025948282	0	0	0	-15.00408600312666	0	75.00029521715277	45.00000025948282	0	0
84.07500000000199	-64.81614380340345	-7.699135677802498	-204.9094526626987	0	0.9399999999999999	0	40.78744171784614	-16.74761336217691	-14.53113694051759	34.67527146569578	0.6051976560992313	-18.11729067278814	0	0	-29.98816243213228	29.99706016772141	-39.99393985194035	119.9979118453834	2.094358657219844	-39.99706406069708	0	0	0	0	0	0	-15.00408486463304	0	75.00029515245471	45.00000025947666	0	0	0	-15.00408486463304	0	75.00029515245471	45.00000025947666	0	0
84.100000000002	-64.5552965268807	-7.15890534516751	-205.0975616637705	0	0.9399999999999999	0	40.51198289823456	-15.58448001524451	-14.87591916743249	34.04831792673843	0.5942552525873951	-17.93734154166434	0	0	-29.98811859259554	29.99707549606116	-39.99390584452656	119.9978950188684	2.094358363541756	-39.99704791004805	0	0	0	0	0	0	-15.00408133034367	0	75.00029495073839	45.00000025945737	0	0	0	-15.00408133034367	0	75.00029495073839	45.00000025945737	0	0
84.125000000002	-64.30884033264391	-6.646251496935538	-205.313769732284	0	0.9399999999999999	0	40.35086425385958	-14.49819118546289	-15.10562562302333	33.46965143108721	0.5841556169673039	-17.83640650894117	0	0	-29.98803340156724	29.99709162660977	-39.99387183357052	119.9978773274008	2.094358054767397	-39.99702647306243	0	0	0	0	0	0	-15.00407787511336	0	75.00029475370046	45.00000025943859	0	0	0	-15.00407787511336	0	75.00029475370046	45.00000025943859	0	0
84.15000000000201	-64.0430904590706	-6.119236867483086	-205.4343611950879	0	0.9399999999999999	0	40.45088999520567	-13.58986022357082	-15.35695389512581	33.30612344378947	0.5813015151697987	-17.58494248243024	0	0	-29.98795742152758	29.99710962900414	-39.99385635738005	119.997862219906	2.094357791091872	-39.99700827449735	0	0	0	0	0	0	-15.00407661415252	0	75.00029468213752	45.00000025943185	0	0	0	-15.00407661415252	0	75.00029468213752	45.00000025943185	0	0
84.17500000000202	-63.76170130207808	-5.566961086916528	-205.5214002910964	0	0.9399999999999999	0	40.23236632656258	-12.49201654628347	-15.74937197998719	32.54415056515383	0.5680025796267077	-17.50644426933148	0	0	-29.98788764044904	29.99712613411874	-39.99384428114131	119.9978478242917	2.094357539841004	-39.99698988424998	0	0	0	0	0	0	-15.00407219925847	0	75.00029443054245	45.00000025940794	0	0	0	-15.00407219925847	0	75.00029443054245	45.00000025940794	0	0
